HIERARCHY
ROOT Hips
{
  OFFSET 74.0196 97.4445 -31.1285
  CHANNELS 6 Xposition Yposition Zposition Zrotation Xrotation Yrotation
  JOINT RightUpLeg
  {
    OFFSET -8.9458 -8.66707 0.101652
    CHANNELS 3 Zrotation Xrotation Yrotation
    JOINT RightLeg
    {
      OFFSET -2.94875e-013 -44.4227 1.3727
      CHANNELS 3 Zrotation Xrotation Yrotation
      JOINT RightFoot
      {
        OFFSET 0.253549 -42.0924 -1.46059
        CHANNELS 3 Zrotation Xrotation Yrotation
        JOINT RightToes
        {
          OFFSET 0.04 -4.41509 8.4991
          CHANNELS 3 Zrotation Xrotation Yrotation
          End Site
          {
            OFFSET -0.08 -0.137448 9.77979
          }
        }
      }
    }
  }
  JOINT Spine
  {
    OFFSET -5.68434e-014 11.8905 -6.39488e-014
    CHANNELS 3 Zrotation Xrotation Yrotation
    JOINT Spine1
    {
      OFFSET 5.68434e-014 25.6574 0.127663
      CHANNELS 3 Zrotation Xrotation Yrotation
      JOINT HEad
      {
        OFFSET 4.26326e-014 8.73416 0.011341
        CHANNELS 3 Zrotation Xrotation Yrotation
        End Site
        {
          OFFSET -0.29 12.7742 2.51395
        }
      }
      JOINT LeftShoulder1
      {
        OFFSET 8.99 -0.362252 -0.22
        CHANNELS 3 Zrotation Xrotation Yrotation
        JOINT LeftArm
        {
          OFFSET 10.2827 -0.00338 0.322123
          CHANNELS 3 Zrotation Xrotation Yrotation
          JOINT LeftForeArm
          {
            OFFSET 32.7669 0.099144 -1.42434
            CHANNELS 3 Zrotation Xrotation Yrotation
            JOINT LeftHand
            {
              OFFSET 27.5643 0.085362 1.02216
              CHANNELS 3 Zrotation Xrotation Yrotation
              End Site
              {
                OFFSET 16.7443 -0.6 1.50291
              }
            }
          }
        }
      }
      JOINT RightShoulder
      {
        OFFSET -8.99 -0.362252 -0.22
        CHANNELS 3 Zrotation Xrotation Yrotation
        JOINT RightArm
        {
          OFFSET -10.2827 -0.00338 0.322123
          CHANNELS 3 Zrotation Xrotation Yrotation
          JOINT RightForeArm
          {
            OFFSET -32.8971 0.099144 -1.42434
            CHANNELS 3 Zrotation Xrotation Yrotation
            JOINT RightHand
            {
              OFFSET -27.4921 0.085362 1.02216
              CHANNELS 3 Zrotation Xrotation Yrotation
              End Site
              {
                OFFSET -16.6312 -0.6 1.50291
              }
            }
          }
        }
      }
    }
  }
  JOINT LeftUpLeg
  {
    OFFSET 8.9458 -8.66707 0.101652
    CHANNELS 3 Zrotation Xrotation Yrotation
    JOINT LeftLeg
    {
      OFFSET 7.10543e-014 -44.4227 1.3727
      CHANNELS 3 Zrotation Xrotation Yrotation
      JOINT LeftFoot
      {
        OFFSET -0.253549 -42.0924 -1.46059
        CHANNELS 3 Zrotation Xrotation Yrotation
        JOINT LeftToes
        {
          OFFSET -0.04 -4.41509 8.4991
          CHANNELS 3 Zrotation Xrotation Yrotation
          End Site
          {
            OFFSET 0.08 -0.047448 9.77979
          }
        }
      }
    }
  }
}
MOTION
Frames:	14
Frame Time:	0.0166667
11.1716 89.1492 31.6727 -0.957805 -3.23172 118.399 -19.0578 -3.9493 -0.618524 8.61806 41.5595 -11.6387 2.27327 -3.26997 -0.23033 -31.0564 -38.2929 -20.9531 -1.02956 7.41852 3.62143 -1.52682 14.5161 7.61478 -8.92288 -7.46598 12.4934 -5.03302e-021 -3.88251e-019 1.21329e-020 -101.072 -67.3304 -72.3955 16.6702 42.6165 -120.349 29.8314 8.53815 -0.983539 6.68248 2.49258 20.9476 83.5355 -30.5755 59.6554 -18.9437 49.6249 138.703 -23.9285 16.1361 -34.752 16.49 -37.1155 1.04729 15.8583 30.9486 -23.6756 -25.9687 11.7833 4.3694 11.6237 -16.678 -4.0118 
10.8572 87.777 30.2861 -0.94544 -2.956 117.325 -20.3229 -2.08497 -0.0274117 7.83701 39.4696 -9.88737 2.67391 -5.63126 -0.206028 -32.0374 -38.5922 -22.5565 -1.22252 7.7743 3.88457 -1.66186 15.1074 8.29039 -8.71763 -8.75627 12.4854 -5.03302e-021 -3.88251e-019 1.21329e-020 -86.2072 -64.346 -54.8419 15.997 38.1682 -123.354 29.366 8.63175 -0.703188 5.96164 2.27835 20.265 85.1471 -30.3855 60.9891 -18.6846 50.6463 138.402 -24.2835 16.0638 -33.966 16.1375 -39.7086 0.531249 17.3666 36.2223 -25.9823 -28.7622 12.2653 4.98646 14.4864 -21.3978 -5.60984 
10.392 86.5517 28.6581 -1.03259 -2.92404 115.447 -21.698 -1.13595 0.170474 6.3382 37.3317 -6.88659 3.3281 -7.67176 -0.171482 -32.1593 -38.6146 -22.7847 -1.34702 8.07475 4.33801 -1.79577 15.6278 9.29968 -8.42701 -10.7219 12.6906 -5.03302e-021 -3.88251e-019 1.21329e-020 -71.631 -59.6927 -38.4251 15.342 32.9749 -126.341 28.3557 8.85402 0.0189305 5.30744 2.07264 19.438 86.1941 -29.9815 61.9259 -18.326 51.371 138.208 -24.5211 15.9533 -33.1647 17.05 -42.7725 0.77344 18.2119 42.3634 -28.1408 -31.1704 13.2069 5.68504 16.9616 -26.015 -7.67102 
9.78075 85.5166 26.7752 -1.26581 -3.15871 112.67 -23.1316 -1.33447 -0.0924492 4.30791 35.3443 -2.74113 4.2355 -8.66084 -0.140991 -32.022 -38.7464 -22.1705 -1.39379 8.29519 4.95129 -1.91797 16.0398 10.5535 -8.04661 -13.2406 13.2327 -5.03302e-021 -3.88251e-019 1.21329e-020 -59.4433 -54.2258 -24.8343 14.9131 27.6994 -129.201 26.8482 9.19024 1.22774 4.78221 1.9012 18.6191 86.4099 -29.4354 62.3206 -17.8969 51.6682 138.12 -24.5285 15.8273 -32.5736 19.4368 -45.8043 2.02562 18.1351 48.2621 -29.5847 -32.7842 14.7108 6.42843 18.6929 -29.9514 -10.0276 
9.05771 84.7153 24.7019 -1.7351 -3.58825 109.098 -24.4484 -2.68686 -0.794916 1.81156 33.4655 2.24366 5.38904 -8.49982 -0.13739 -31.8566 -39.039 -21.1308 -1.50608 8.44978 5.62926 -2.07294 16.3246 11.8907 -7.50374 -16.0551 14.2032 -5.03302e-021 -3.88251e-019 1.21329e-020 -49.5216 -49.788 -13.6054 14.7375 23.4402 -131.568 25.139 9.52555 2.57487 4.45056 1.78878 18.0043 85.6429 -28.8871 62.1222 -17.3719 51.5109 138.067 -24.2848 15.7168 -32.346 23.1219 -48.3158 4.14347 16.9121 52.9432 -29.6806 -33.3471 16.4472 7.05144 19.559 -32.6388 -12.1664 
8.26289 84.135 22.5655 -2.49242 -4.06051 105.002 -25.4393 -4.98745 -1.78548 -1.10592 31.6298 7.54889 6.74902 -7.71404 -0.168879 -31.4254 -39.2384 -19.688 -1.90846 8.56782 6.2536 -2.32584 16.4914 13.1085 -6.70683 -18.8169 15.6247 -5.03302e-021 -3.88251e-019 1.21329e-020 -40.3217 -48.362 -3.39771 14.6597 21.5851 -132.828 23.7251 9.72177 3.44317 4.33936 1.7499 17.7738 83.9054 -28.5146 61.3949 -16.7043 50.9811 137.933 -23.8802 15.6444 -32.4849 27.4824 -49.9255 6.51112 14.5019 55.6289 -28.0401 -32.8242 18.0801 7.40067 19.9872 -34.1702 -13.4306 
7.43449 83.6968 20.4675 -3.45323 -4.4812 100.785 -25.9411 -7.80492 -2.7674 -4.22138 29.8073 12.413 8.11557 -6.92826 -0.219207 -30.461 -39.0689 -17.7835 -2.5998 8.66268 6.69011 -2.6763 16.5762 13.9959 -5.62584 -21.1642 17.4304 -5.03302e-021 -3.88251e-019 1.21329e-020 -29.4752 -50.8422 7.32706 14.5275 23.1673 -132.232 22.9825 9.72265 3.41801 4.40513 1.78279 18.0278 81.399 -28.4933 60.317 -15.8846 50.2669 137.608 -23.4979 15.6157 -32.8124 31.6489 -50.4221 8.26395 11.4625 55.831 -25.0957 -31.4076 19.4409 7.43258 20.57 -35.1242 -13.4389 
6.62413 83.2768 18.4222 -4.42986 -4.84388 96.8569 -25.9863 -10.6359 -3.38379 -7.08041 28.1615 15.9528 9.11266 -6.41469 -0.263448 -29.0962 -38.5364 -15.615 -3.32884 8.72672 6.85216 -3.0541 16.6381 14.3774 -4.33935 -22.8036 19.4718 -5.03302e-021 -3.88251e-019 1.21329e-020 -14.6756 -55.9405 19.9982 14.4653 27.9155 -128.928 22.8092 9.60527 2.80062 4.53663 1.86777 18.7482 78.4999 -28.9572 59.1586 -14.9724 49.6436 137.025 -23.3607 15.6246 -33.026 34.783 -49.7822 8.75239 9.09027 53.5431 -22.2803 -29.5007 20.3123 7.17712 21.5453 -35.8349 -12.2167 
5.88946 82.729 16.3974 -5.23259 -5.22037 93.5507 -25.7782 -13.2137 -3.41222 -9.20138 27.3215 17.4823 9.30636 -6.12031 -0.287728 -27.8537 -38.0064 -13.6094 -3.75123 8.76051 6.72378 -3.35499 16.7504 14.1576 -3.01274 -23.5713 21.5573 -5.03302e-021 -3.88251e-019 1.21329e-020 4.19393 -60.9472 34.438 14.8312 34.3036 -122.175 22.6753 9.58544 2.68752 4.58706 1.96854 19.8061 75.6907 -29.9531 58.2319 -14.0794 49.3981 136.177 -23.636 15.6593 -32.8527 36.5387 -48.2098 8.04932 8.47864 49.3885 -21.0974 -27.638 20.3064 6.69665 22.7161 -36.162 -10.0744 
5.26192 81.9791 14.3668 -5.76424 -5.66885 91.0764 -25.5896 -15.5423 -2.8874 -10.2539 28.0532 16.7278 8.39013 -5.80143 -0.296671 -27.3086 -37.9896 -12.2033 -3.64524 8.80612 6.33685 -3.51628 16.9893 13.3514 -1.83066 -23.4666 23.5045 -5.03302e-021 -3.88251e-019 1.21329e-020 23.6427 -64.5338 47.4032 15.6583 41.1905 -111.638 21.9423 9.90841 4.37982 4.41072 2.0369 21.0046 73.4547 -31.3912 57.814 -13.3295 49.699 135.135 -24.3333 15.7024 -32.2216 37.184 -46.1158 6.90796 9.51627 44.4005 -21.9543 -26.2456 19.1525 6.07947 23.7068 -35.9184 -7.55736 
4.71366 81.0579 12.3698 -6.04123 -6.14579 89.5376 -25.6745 -17.754 -2.0686 -10.0426 30.8086 13.7658 6.30552 -5.20534 -0.291561 -27.7924 -38.795 -11.7078 -3.09329 8.94795 5.73831 -3.57149 17.423 12.0846 -0.93983 -22.6634 25.1695 -5.03302e-021 -3.88251e-019 1.21329e-020 18.2731 -61.5195 34.4763 13.5246 37.6582 -91.5276 18.9384 10.8333 10.2529 3.89138 2.02239 22.1279 72.1754 -33.0463 58.0672 -12.8305 50.5091 134.061 -25.2745 15.7377 -31.32 37.2634 -44.1329 6.19806 11.2278 39.723 -24.2802 -25.4311 16.99 5.40798 24.2702 -35.246 -5.33053 
4.17903 80.057 10.5077 -6.15408 -6.50616 88.9417 -26.2296 -19.9266 -1.31652 -8.42965 35.498 8.8777 3.29184 -4.26507 -0.247438 -29.2372 -40.2798 -12.2111 -2.42871 9.25866 4.98923 -3.63104 18.0912 10.5678 -0.436165 -21.4898 26.429 -5.03302e-021 -3.88251e-019 1.21329e-020 3.1456 -45.4531 10.78 10.3037 19.7599 -62.2368 13.1167 11.1776 16.281 2.97438 1.88878 22.9753 72.0519 -34.6441 58.9814 -12.6589 51.6148 133.2 -26.187 15.7641 -30.471 37.1531 -43.004 6.4523 12.7601 36.3944 -27.3775 -25.0497 14.2937 4.7442 24.4031 -34.5261 -3.92903 
3.61092 79.0429 8.89149 -6.22132 -6.57305 89.1877 -27.3621 -22.0506 -0.976516 -5.35513 41.6723 2.51231 -0.110591 -3.28932 -0.138759 -31.1157 -41.8725 -13.424 -2.03127 9.74831 4.18933 -3.81024 18.9886 9.06329 -0.387841 -20.3467 27.1424 -5.03302e-021 -3.88251e-019 1.21329e-020 1.3846 -28.6721 -0.616546 9.83578 2.95205 -33.8717 7.63181 10.5682 15.604 1.70065 1.63311 23.3851 73.0394 -35.9706 60.3617 -12.8431 52.7374 132.799 -26.8494 15.7945 -29.9369 36.9545 -43.2705 7.81778 13.8537 35.0437 -30.8317 -24.9644 11.6409 4.16144 24.27 -34.1496 -3.62385 
3.01308 78.0283 7.57465 -6.36434 -6.20575 90.0519 -29.0346 -24.0674 -1.30222 -0.928828 48.7295 -4.74888 -3.17314 -2.80436 -0.00478654 -32.6216 -42.9314 -14.7029 -2.14956 10.3627 3.48973 -4.17563 20.0616 7.84754 -0.855825 -19.5604 27.1474 -5.03302e-021 -3.88251e-019 1.21329e-020 4.12965 -19.6887 -6.53182 9.08462 -6.08678 -13.7198 5.0437 10.1145 10.2035 0.218955 1.29557 23.2635 74.8475 -36.9215 61.8698 -13.3362 53.6403 132.984 -27.1848 15.838 -29.7941 36.6184 -44.9819 10.1161 14.6929 35.6146 -34.3331 -25.1824 9.55203 3.75059 24.0595 -34.3826 -4.4498 
